<?xml version="1.0" encoding="UTF-8"?>
<svg xmlns="http://www.w3.org/2000/svg" xmlns:xlink="http://www.w3.org/1999/xlink" width="158px" height="26px" viewBox="0 0 155 26" version="1.1">
<g id="surface1">
<path style=" stroke:none;fill-rule:nonzero;fill:rgb(100%,100%,100%);fill-opacity:1;" d="M 0.402344 0.269531 L 154.597656 0.269531 L 154.597656 25.464844 L 0.402344 25.464844 Z M 0.402344 0.269531 "/>
<path style=" stroke:none;fill-rule:nonzero;fill:rgb(0%,0%,0%);fill-opacity:1;" d="M 3.609375 2.546875 L 76.566406 2.546875 L 76.566406 23.320312 L 3.609375 23.320312 Z M 3.609375 2.546875 "/>
<path style=" stroke:none;fill-rule:nonzero;fill:rgb(100%,100%,100%);fill-opacity:1;" d="M 15.726562 17.230469 L 15.421875 20.144531 C 15.410156 20.230469 15.339844 20.296875 15.25 20.296875 L 7.609375 20.296875 C 7.515625 20.296875 7.441406 20.21875 7.441406 20.125 L 7.441406 6.332031 C 7.441406 6.238281 7.515625 6.164062 7.609375 6.164062 L 10.851562 6.164062 C 10.945312 6.164062 11.023438 6.238281 11.023438 6.332031 L 11.023438 16.871094 C 11.023438 16.964844 11.097656 17.042969 11.191406 17.042969 L 15.554688 17.042969 C 15.65625 17.042969 15.734375 17.128906 15.722656 17.230469 Z M 15.726562 17.230469 "/>
<path style=" stroke:none;fill-rule:nonzero;fill:rgb(100%,100%,100%);fill-opacity:1;" d="M 29.101562 20.347656 L 25.625 20.347656 C 25.53125 20.347656 25.449219 20.289062 25.421875 20.203125 L 24.6875 17.96875 C 24.664062 17.898438 24.59375 17.847656 24.519531 17.847656 L 20.21875 17.847656 C 20.140625 17.847656 20.074219 17.898438 20.050781 17.972656 L 19.308594 20.230469 C 19.28125 20.300781 19.21875 20.347656 19.140625 20.347656 L 15.636719 20.347656 C 15.511719 20.347656 15.429688 20.226562 15.472656 20.109375 L 20.644531 6.339844 C 20.679688 6.253906 20.761719 6.195312 20.851562 6.195312 L 23.902344 6.195312 C 23.984375 6.195312 24.054688 6.246094 24.085938 6.324219 L 29.265625 20.109375 C 29.308594 20.226562 29.222656 20.347656 29.101562 20.347656 Z M 23.621094 14.726562 L 22.539062 11.433594 C 22.484375 11.269531 22.253906 11.269531 22.199219 11.433594 L 21.113281 14.730469 C 21.074219 14.84375 21.160156 14.960938 21.277344 14.960938 L 23.453125 14.960938 C 23.574219 14.960938 23.660156 14.839844 23.621094 14.726562 Z M 23.621094 14.726562 "/>
<path style=" stroke:none;fill-rule:nonzero;fill:rgb(100%,100%,100%);fill-opacity:1;" d="M 39.925781 10.960938 C 39.925781 12.421875 39.34375 13.914062 38.472656 14.675781 C 37.554688 15.46875 36.640625 15.898438 34.453125 15.898438 L 33.304688 15.898438 C 33.210938 15.898438 33.136719 15.976562 33.136719 16.070312 L 33.136719 20.121094 C 33.136719 20.214844 33.058594 20.289062 32.96875 20.289062 L 29.722656 20.289062 C 29.628906 20.289062 29.554688 20.214844 29.554688 20.121094 L 29.554688 6.34375 C 29.554688 6.25 29.628906 6.175781 29.722656 6.175781 L 34.066406 6.175781 C 36.578125 6.175781 37.550781 6.570312 38.304688 7.207031 C 39.335938 8.085938 39.929688 9.453125 39.929688 10.960938 Z M 36.492188 11.015625 C 36.492188 10.328125 36.214844 9.871094 35.652344 9.625 C 35.183594 9.421875 34.609375 9.421875 34.230469 9.421875 L 33.304688 9.421875 C 33.210938 9.421875 33.136719 9.496094 33.136719 9.59375 L 33.136719 12.476562 C 33.136719 12.570312 33.210938 12.644531 33.304688 12.644531 L 34.363281 12.644531 C 34.6875 12.644531 35.238281 12.644531 35.691406 12.441406 C 36.351562 12.140625 36.492188 11.5 36.492188 11.011719 Z M 36.492188 11.015625 "/>
<path style=" stroke:none;fill-rule:nonzero;fill:rgb(100%,100%,100%);fill-opacity:1;" d="M 49.058594 6.332031 L 49.058594 9.246094 C 49.058594 9.339844 48.984375 9.417969 48.890625 9.417969 L 46.382812 9.417969 C 46.289062 9.417969 46.214844 9.492188 46.214844 9.585938 L 46.214844 20.125 C 46.214844 20.21875 46.136719 20.296875 46.042969 20.296875 L 42.800781 20.296875 C 42.707031 20.296875 42.628906 20.21875 42.628906 20.125 L 42.628906 9.585938 C 42.628906 9.492188 42.554688 9.417969 42.460938 9.417969 L 39.9375 9.417969 C 39.84375 9.417969 39.765625 9.339844 39.765625 9.246094 L 39.765625 6.332031 C 39.765625 6.238281 39.84375 6.164062 39.9375 6.164062 L 48.890625 6.164062 C 48.984375 6.164062 49.058594 6.238281 49.058594 6.332031 Z M 49.058594 6.332031 "/>
<path style=" stroke:none;fill-rule:nonzero;fill:rgb(100%,100%,100%);fill-opacity:1;" d="M 63.253906 13.222656 C 63.253906 17.316406 60.011719 20.648438 56.023438 20.648438 C 52.035156 20.648438 48.792969 17.316406 48.792969 13.222656 C 48.792969 9.128906 52.035156 5.800781 56.023438 5.800781 C 60.011719 5.800781 63.253906 9.128906 63.253906 13.222656 Z M 59.980469 13.222656 C 59.980469 10.988281 58.207031 9.167969 56.023438 9.167969 C 53.839844 9.167969 52.066406 10.988281 52.066406 13.222656 C 52.066406 15.460938 53.839844 17.277344 56.023438 17.277344 C 58.207031 17.277344 59.980469 15.460938 59.980469 13.222656 Z M 59.980469 13.222656 "/>
<path style=" stroke:none;fill-rule:nonzero;fill:rgb(100%,100%,100%);fill-opacity:1;" d="M 74.183594 10.960938 C 74.183594 12.421875 73.597656 13.914062 72.722656 14.675781 C 71.804688 15.46875 70.894531 15.898438 68.707031 15.898438 L 67.558594 15.898438 C 67.464844 15.898438 67.390625 15.976562 67.390625 16.070312 L 67.390625 20.121094 C 67.390625 20.214844 67.3125 20.289062 67.21875 20.289062 L 63.976562 20.289062 C 63.882812 20.289062 63.808594 20.214844 63.808594 20.121094 L 63.808594 6.34375 C 63.808594 6.25 63.882812 6.175781 63.976562 6.175781 L 68.320312 6.175781 C 70.832031 6.175781 71.804688 6.570312 72.558594 7.207031 C 73.589844 8.085938 74.183594 9.453125 74.183594 10.960938 Z M 70.746094 11.015625 C 70.746094 10.328125 70.472656 9.871094 69.910156 9.625 C 69.4375 9.421875 68.867188 9.421875 68.488281 9.421875 L 67.5625 9.421875 C 67.46875 9.421875 67.390625 9.496094 67.390625 9.59375 L 67.390625 12.476562 C 67.390625 12.570312 67.46875 12.644531 67.5625 12.644531 L 68.617188 12.644531 C 68.945312 12.644531 69.492188 12.644531 69.945312 12.441406 C 70.609375 12.140625 70.746094 11.5 70.746094 11.011719 Z M 70.746094 11.015625 "/>
<path style=" stroke:none;fill-rule:nonzero;fill:rgb(0%,0%,0%);fill-opacity:1;" d="M 89.863281 6.363281 L 89.863281 20.128906 C 89.863281 20.226562 89.785156 20.304688 89.6875 20.304688 L 86.457031 20.304688 C 86.359375 20.304688 86.277344 20.226562 86.277344 20.128906 L 86.277344 14.945312 C 86.277344 14.847656 86.199219 14.769531 86.101562 14.769531 L 82.085938 14.769531 C 81.988281 14.769531 81.90625 14.847656 81.90625 14.945312 L 81.90625 20.128906 C 81.90625 20.226562 81.828125 20.304688 81.730469 20.304688 L 78.5 20.304688 C 78.402344 20.304688 78.324219 20.226562 78.324219 20.128906 L 78.324219 6.363281 C 78.324219 6.265625 78.402344 6.1875 78.5 6.1875 L 81.734375 6.1875 C 81.828125 6.1875 81.90625 6.265625 81.90625 6.363281 L 81.90625 11.363281 C 81.90625 11.460938 81.988281 11.539062 82.082031 11.539062 L 86.101562 11.539062 C 86.199219 11.539062 86.277344 11.457031 86.277344 11.359375 L 86.277344 6.363281 C 86.277344 6.265625 86.355469 6.1875 86.453125 6.1875 L 89.683594 6.1875 C 89.78125 6.1875 89.859375 6.265625 89.859375 6.363281 Z M 89.863281 6.363281 "/>
<path style=" stroke:none;fill-rule:nonzero;fill:rgb(0%,0%,0%);fill-opacity:1;" d="M 103.765625 20.332031 L 100.289062 20.332031 C 100.195312 20.332031 100.113281 20.273438 100.085938 20.1875 L 99.351562 17.953125 C 99.328125 17.882812 99.261719 17.832031 99.183594 17.832031 L 94.882812 17.832031 C 94.804688 17.832031 94.738281 17.882812 94.714844 17.953125 L 93.972656 20.214844 C 93.949219 20.285156 93.882812 20.332031 93.808594 20.332031 L 90.300781 20.332031 C 90.179688 20.332031 90.09375 20.210938 90.136719 20.09375 L 95.308594 6.324219 C 95.34375 6.234375 95.425781 6.179688 95.515625 6.179688 L 98.566406 6.179688 C 98.648438 6.179688 98.71875 6.230469 98.75 6.308594 L 103.929688 20.09375 C 103.972656 20.207031 103.890625 20.332031 103.765625 20.332031 Z M 98.285156 14.710938 L 97.203125 11.414062 C 97.148438 11.253906 96.917969 11.253906 96.863281 11.414062 L 95.777344 14.71875 C 95.742188 14.828125 95.824219 14.945312 95.941406 14.945312 L 98.117188 14.945312 C 98.238281 14.945312 98.324219 14.828125 98.285156 14.710938 Z M 98.285156 14.710938 "/>
<path style=" stroke:none;fill-rule:nonzero;fill:rgb(0%,0%,0%);fill-opacity:1;" d="M 114.367188 20.058594 C 114.414062 20.171875 114.332031 20.296875 114.210938 20.296875 L 110.6875 20.296875 C 110.621094 20.296875 110.558594 20.257812 110.53125 20.195312 L 108.691406 15.964844 C 108.664062 15.902344 108.601562 15.863281 108.535156 15.863281 L 107.96875 15.863281 C 107.875 15.863281 107.800781 15.9375 107.800781 16.03125 L 107.800781 20.085938 C 107.800781 20.179688 107.722656 20.253906 107.628906 20.253906 L 104.386719 20.253906 C 104.292969 20.253906 104.21875 20.179688 104.21875 20.085938 L 104.21875 6.308594 C 104.21875 6.214844 104.292969 6.136719 104.386719 6.136719 L 108.730469 6.136719 C 111.242188 6.136719 112.214844 6.53125 112.96875 7.171875 C 114 8.046875 114.589844 9.414062 114.589844 10.925781 C 114.589844 12.433594 114.007812 13.878906 113.136719 14.640625 C 112.875 14.863281 112.640625 15.035156 112.40625 15.179688 C 112.332031 15.226562 112.300781 15.316406 112.335938 15.394531 L 114.367188 20.0625 Z M 111.15625 10.980469 C 111.15625 10.289062 110.882812 9.835938 110.320312 9.589844 C 109.847656 9.386719 109.273438 9.386719 108.898438 9.386719 L 107.972656 9.386719 C 107.878906 9.386719 107.800781 9.460938 107.800781 9.554688 L 107.800781 12.441406 C 107.800781 12.535156 107.878906 12.613281 107.972656 12.613281 L 109.027344 12.613281 C 109.355469 12.613281 109.902344 12.613281 110.355469 12.40625 C 111.015625 12.109375 111.15625 11.464844 111.15625 10.980469 Z M 111.15625 10.980469 "/>
<path style=" stroke:none;fill-rule:nonzero;fill:rgb(0%,0%,0%);fill-opacity:1;" d="M 125.515625 16.003906 C 125.515625 17.246094 125.027344 18.429688 124.242188 19.09375 C 122.941406 20.210938 121.976562 20.316406 119.746094 20.316406 L 115.394531 20.316406 C 115.292969 20.316406 115.214844 20.234375 115.214844 20.136719 L 115.214844 6.371094 C 115.214844 6.273438 115.292969 6.195312 115.386719 6.195312 L 120.28125 6.195312 C 121.753906 6.195312 123.027344 6.546875 123.785156 7.152344 C 123.785156 7.152344 123.785156 7.15625 123.785156 7.15625 C 124.59375 7.773438 125.019531 8.730469 125.019531 9.925781 C 125.019531 10.90625 124.496094 11.871094 123.582031 12.5625 C 123.480469 12.640625 123.496094 12.800781 123.613281 12.855469 C 124.875 13.453125 125.515625 14.511719 125.515625 16.003906 Z M 122.121094 15.789062 C 122.121094 15.269531 121.878906 14.914062 121.410156 14.734375 C 121.042969 14.589844 120.582031 14.589844 120.308594 14.589844 L 118.757812 14.589844 C 118.664062 14.589844 118.585938 14.664062 118.585938 14.761719 L 118.585938 16.933594 C 118.585938 17.027344 118.664062 17.109375 118.761719 17.109375 L 120.308594 17.109375 C 120.53125 17.109375 120.988281 17.109375 121.367188 16.945312 C 121.863281 16.746094 122.125 16.34375 122.125 15.785156 Z M 118.597656 11.671875 C 118.597656 11.765625 118.675781 11.84375 118.769531 11.84375 L 119.882812 11.84375 C 120.101562 11.84375 120.558594 11.84375 120.9375 11.691406 C 121.433594 11.5 121.695312 11.113281 121.695312 10.574219 C 121.695312 10.070312 121.453125 9.730469 120.980469 9.558594 C 120.617188 9.417969 120.15625 9.417969 119.882812 9.417969 L 118.777344 9.417969 C 118.679688 9.417969 118.597656 9.496094 118.597656 9.59375 Z M 118.597656 11.671875 "/>
<path style=" stroke:none;fill-rule:nonzero;fill:rgb(0%,0%,0%);fill-opacity:1;" d="M 140.152344 13.207031 C 140.152344 17.300781 136.90625 20.632812 132.921875 20.632812 C 128.933594 20.632812 125.6875 17.300781 125.6875 13.207031 C 125.6875 9.113281 128.933594 5.78125 132.921875 5.78125 C 136.90625 5.78125 140.152344 9.113281 140.152344 13.207031 Z M 136.878906 13.207031 C 136.878906 10.972656 135.101562 9.152344 132.921875 9.152344 C 130.738281 9.152344 128.964844 10.972656 128.964844 13.207031 C 128.964844 15.441406 130.738281 17.261719 132.921875 17.261719 C 135.101562 17.261719 136.878906 15.441406 136.878906 13.207031 Z M 136.878906 13.207031 "/>
<path style=" stroke:none;fill-rule:nonzero;fill:rgb(0%,0%,0%);fill-opacity:1;" d="M 150.855469 20.058594 C 150.902344 20.171875 150.820312 20.296875 150.699219 20.296875 L 147.175781 20.296875 C 147.105469 20.296875 147.046875 20.257812 147.019531 20.195312 L 145.175781 15.964844 C 145.152344 15.902344 145.089844 15.863281 145.019531 15.863281 L 144.457031 15.863281 C 144.363281 15.863281 144.289062 15.9375 144.289062 16.03125 L 144.289062 20.085938 C 144.289062 20.179688 144.210938 20.253906 144.117188 20.253906 L 140.875 20.253906 C 140.78125 20.253906 140.707031 20.179688 140.707031 20.085938 L 140.707031 6.308594 C 140.707031 6.214844 140.78125 6.136719 140.875 6.136719 L 145.21875 6.136719 C 147.730469 6.136719 148.703125 6.53125 149.453125 7.171875 C 150.488281 8.046875 151.078125 9.414062 151.078125 10.925781 C 151.078125 12.433594 150.496094 13.878906 149.625 14.640625 C 149.359375 14.863281 149.128906 15.035156 148.890625 15.179688 C 148.820312 15.226562 148.789062 15.316406 148.824219 15.394531 L 150.855469 20.0625 Z M 147.644531 10.980469 C 147.644531 10.289062 147.367188 9.835938 146.804688 9.589844 C 146.335938 9.386719 145.761719 9.386719 145.382812 9.386719 L 144.457031 9.386719 C 144.363281 9.386719 144.289062 9.460938 144.289062 9.554688 L 144.289062 12.441406 C 144.289062 12.535156 144.363281 12.613281 144.457031 12.613281 L 145.515625 12.613281 C 145.839844 12.613281 146.390625 12.613281 146.84375 12.40625 C 147.503906 12.109375 147.644531 11.464844 147.644531 10.980469 Z M 147.644531 10.980469 "/>
<path style="fill:none;stroke-width:6;stroke-linecap:butt;stroke-linejoin:miter;stroke:rgb(0%,0%,0%);stroke-opacity:1;stroke-miterlimit:10;" d="M 3.011089 3.002103 L 1156.988911 3.002103 L 1156.988911 190.997897 L 3.011089 190.997897 Z M 3.011089 3.002103 " transform="matrix(0.133621,0,0,0.134021,0,0)"/>
</g>
</svg>
